<?xml version="1.0" standalone="no"?><!DOCTYPE svg PUBLIC "-//W3C//DTD SVG 1.1//EN" "http://www.w3.org/Graphics/SVG/1.1/DTD/svg11.dtd"><svg width="1em" height="1em" viewBox="0 0 1024 1024" version="1.1" xmlns="http://www.w3.org/2000/svg"><path fill="currentColor" d="M512 938.666667C276.352 938.666667 85.333333 747.648 85.333333 512S276.352 85.333333 512 85.333333s426.666667 191.018667 426.666667 426.666667-191.018667 426.666667-426.666667 426.666667z m341.333333-426.666667a341.333333 341.333333 0 1 0-682.666666 0 341.333333 341.333333 0 0 0 682.666666 0z m-170.666666-42.666667a42.666667 42.666667 0 0 1 0 85.333334h-128c-46.933333 0-85.333333-38.4-85.333334-85.333334V298.666667a42.666667 42.666667 0 0 1 85.333334 0v170.666666h128z"  /></svg>