<?xml version="1.0" standalone="no"?><!DOCTYPE svg PUBLIC "-//W3C//DTD SVG 1.1//EN" "http://www.w3.org/Graphics/SVG/1.1/DTD/svg11.dtd"><svg viewBox="0 0 1024 1024" version="1.1" xmlns="http://www.w3.org/2000/svg" xmlns:xlink="http://www.w3.org/1999/xlink" width="1em" height="1em"><path d="M885.902222 533.703111c16.782222-22.186667 26.112-49.408 26.112-77.710222 0-44.885333-25.116444-87.409778-65.507555-111.104a67.697778 67.697778 0 0 0-34.304-9.301333h-239.786667l5.973333-122.88a107.036444 107.036444 0 0 0-29.496889-79.416889 106.638222 106.638222 0 0 0-77.880888-33.393778 116.252444 116.252444 0 0 0-111.786667 85.105778l-85.902222 310.983111h-0.312889v428.003555h472.291555c9.187556 0 18.204444-1.792 26.510223-5.404444a128.568889 128.568889 0 0 0 72.903111-155.392 128.682667 128.682667 0 0 0 20.679111-114.688c16.782222-22.186667 26.112-49.408 26.112-77.710222a136.533333 136.533333 0 0 0-5.603556-37.091556z m-773.888-5.688889v363.975111c0 17.692444 14.279111 32 31.971556 32h65.024V495.985778H144.014222c-17.720889 0-32 14.307556-32 32z" fill="currentColor"></path></svg>