<?xml version="1.0" standalone="no"?><!DOCTYPE svg PUBLIC "-//W3C//DTD SVG 1.1//EN" "http://www.w3.org/Graphics/SVG/1.1/DTD/svg11.dtd"><svg width="1em" height="1em" viewBox="0 0 1024 1024" version="1.1" xmlns="http://www.w3.org/2000/svg"><path fill="currentColor" d="M132.693333 453.76C235.946667 278.997333 377.6 199.253333 512 199.253333c134.4 0 276.053333 79.786667 379.306667 254.506667 21.162667 35.882667 21.162667 80.597333 0 116.48-103.253333 174.762667-244.906667 254.506667-379.306667 254.506667-134.4 0-276.053333-79.786667-379.306667-254.506667a114.645333 114.645333 0 0 1 0-116.48z m850.432-54.272C865.28 199.978667 692.309333 92.586667 512 92.586667S158.72 199.978667 40.832 399.488a221.312 221.312 0 0 0 0 225.024C158.72 824.021333 331.690667 931.413333 512 931.413333c180.309333 0 353.28-107.392 471.125333-306.901333a221.312 221.312 0 0 0 0-225.024zM437.333333 512a74.666667 74.666667 0 1 1 149.333334 0 74.666667 74.666667 0 0 1-149.333334 0zM512 330.666667a181.333333 181.333333 0 1 0 0 362.666666 181.333333 181.333333 0 0 0 0-362.666666z"  /></svg>