<?xml version="1.0" standalone="no"?><!DOCTYPE svg PUBLIC "-//W3C//DTD SVG 1.1//EN" "http://www.w3.org/Graphics/SVG/1.1/DTD/svg11.dtd"><svg viewBox="0 0 1335 1024" version="1.1" xmlns="http://www.w3.org/2000/svg"><path fill="currentColor" d="M0 0m60.256727 0l1084.621079 0q60.256727 0 60.256726 60.256727l0 0q0 60.256727-60.256726 60.256726l-1084.621079 0q-60.256727 0-60.256727-60.256726l0 0q0-60.256727 60.256727-60.256727Z"  /><path fill="currentColor" d="M0 401.711511m60.256727 0l1084.621079 0q60.256727 0 60.256726 60.256726l0 0q0 60.256727-60.256726 60.256727l-1084.621079 0q-60.256727 0-60.256727-60.256727l0 0q0-60.256727 60.256727-60.256726Z"  /><path fill="currentColor" d="M0 803.423021m60.256727 0l1084.621079 0q60.256727 0 60.256726 60.256727l0 0q0 60.256727-60.256726 60.256727l-1084.621079 0q-60.256727 0-60.256727-60.256727l0 0q0-60.256727 60.256727-60.256727Z"  /></svg>